<svg xmlns="http://www.w3.org/2000/svg" viewBox="0 0 32 32">
    <defs>
        <style>
            .a {
                fill: #FFFFFF;
                fill-rule: evenodd;
            }
        </style>
    </defs>
    <path class="a"
        d="M16,0A16.2,16.2,0,0,0,0,16.41,16.37,16.37,0,0,0,10.94,32c.8.15,1.09-.35,1.09-.79s0-1.42,0-2.79c-4.45,1-5.39-2.2-5.39-2.2a4.32,4.32,0,0,0-1.77-2.4c-1.46-1,.11-1,.11-1a3.4,3.4,0,0,1,2.45,1.7,3.36,3.36,0,0,0,4.65,1.36,3.54,3.54,0,0,1,1-2.19c-3.55-.42-7.29-1.83-7.29-8.11a6.43,6.43,0,0,1,1.65-4.4A6,6,0,0,1,7.6,6.8S8.94,6.36,12,8.49a14.6,14.6,0,0,1,8,0c3-2.13,4.39-1.69,4.39-1.69a6,6,0,0,1,.16,4.35,6.39,6.39,0,0,1,1.65,4.4c0,6.3-3.74,7.69-7.31,8.09a4,4,0,0,1,1.09,3c0,2.19,0,4,0,4.5s.29,1,1.1.79A16.38,16.38,0,0,0,32,16.41,16.2,16.2,0,0,0,16,0Z" />
</svg>