<svg xmlns="http://www.w3.org/2000/svg" version="1.1" xmlns:xlink="http://www.w3.org/1999/xlink" xmlns:svgjs="http://svgjs.com/svgjs" width="64" height="64"><svg xmlns="http://www.w3.org/2000/svg" viewBox="0 0 64 64">
    <defs>
        <style>
            .a {
                fill: #1da1f2;
            }
        </style>
    </defs>
    <path class="a" d="M38.65,24.52h9.61V62.94H39.89l-.53-4.72a13.35,13.35,0,0,1-5.24,4.31A15.92,15.92,0,0,1,27.4,64c-3.66,0-6.43-1-8.25-3.12s-2.77-5-2.77-8.55V16.38H8.07V9.61h8.31V1.12L26,0V9.61H48.26l-1,6.77H26V51.15c0,2.07.42,3.54,1.24,4.36a4.62,4.62,0,0,0,3.6,1.3,8.27,8.27,0,0,0,4.36-1.35A11.63,11.63,0,0,0,38.65,52Z"></path>
</svg><style>@media (prefers-color-scheme: light) { :root { filter: none; } }
</style></svg>