<svg xmlns="http://www.w3.org/2000/svg" viewBox="0 0 202.66 64"><defs><style>.a{fill:#1da1f2;}.b{fill:#fff;}</style></defs><path class="a" d="M30.59,24.52h9.6V62.94H31.82l-.53-4.72a13.35,13.35,0,0,1-5.24,4.31A15.92,15.92,0,0,1,19.33,64c-3.65,0-6.42-1-8.25-3.12s-2.77-5-2.77-8.55V16.38H0V9.61H8.31V1.12L17.92,0V9.61H40.19l-1,6.77H17.92V51.15c0,2.07.41,3.54,1.23,4.36a4.64,4.64,0,0,0,3.6,1.3,8.27,8.27,0,0,0,4.36-1.35A11.78,11.78,0,0,0,30.59,52Z"/><path class="b" d="M81.35,26.68a8.88,8.88,0,0,1-2.42,1.08,10.74,10.74,0,0,1-3.07.43,6.61,6.61,0,0,1-4.94-1.7A6.2,6.2,0,0,1,69.26,22v-9H65.37V9.77h3.89V5.83l4.46-.54V9.77h5.92l-.45,3.16H73.72v9a2.66,2.66,0,0,0,.68,2,3.09,3.09,0,0,0,2.18.65,6.54,6.54,0,0,0,1.77-.23,7.66,7.66,0,0,0,1.46-.58Z"/><path class="b" d="M100.73,27.68H95.49L93.68,15.25,91.75,27.68H86.61L83.75,9.77H88L89.5,24.9,91.72,12h4.11l2,12.86L99.44,9.77h4Z"/><path class="b" d="M110.28,20.09a6.25,6.25,0,0,0,.77,2.72,3.94,3.94,0,0,0,1.63,1.54,5.09,5.09,0,0,0,2.22.49,7.15,7.15,0,0,0,2.42-.41,10.64,10.64,0,0,0,2.23-1.13l1.86,2.55a10.08,10.08,0,0,1-3,1.69,10.8,10.8,0,0,1-3.81.65A9.28,9.28,0,0,1,109.72,27a7.65,7.65,0,0,1-3-3.33,11.35,11.35,0,0,1-1-4.9,11.23,11.23,0,0,1,1-4.82,8.12,8.12,0,0,1,2.87-3.41,7.93,7.93,0,0,1,4.53-1.26,8,8,0,0,1,4.27,1.09,7.22,7.22,0,0,1,2.77,3.1,11.11,11.11,0,0,1,1,4.86q0,.45,0,.93c0,.32,0,.6-.06.85Zm3.84-7.68a3.39,3.39,0,0,0-2.66,1.16,6.07,6.07,0,0,0-1.23,3.66h7.54a6.13,6.13,0,0,0-.94-3.54A3.07,3.07,0,0,0,114.12,12.41Z"/><path class="b" d="M139.5,9.26a3.68,3.68,0,0,1,2,.49,3,3,0,0,1,1.25,1.6,8.45,8.45,0,0,1,.44,3.05V27.68h-3.89V15a5.34,5.34,0,0,0-.19-1.72.83.83,0,0,0-.87-.51,2.25,2.25,0,0,0-1.13.33,4.28,4.28,0,0,0-1.17,1.17V27.68h-3.37V15a5.34,5.34,0,0,0-.19-1.72.83.83,0,0,0-.87-.51,2.2,2.2,0,0,0-1.13.33,4.15,4.15,0,0,0-1.17,1.17V27.68h-3.94V9.77h3.33l.29,1.86a7.55,7.55,0,0,1,1.67-1.74,3.55,3.55,0,0,1,2.12-.63,3.34,3.34,0,0,1,1.8.5,2.79,2.79,0,0,1,1.12,1.7,7.22,7.22,0,0,1,1.74-1.59A4.11,4.11,0,0,1,139.5,9.26Z"/><path class="b" d="M154.5,9.26A8.34,8.34,0,0,1,159,10.43a7.42,7.42,0,0,1,2.83,3.29,11.77,11.77,0,0,1,1,5,12,12,0,0,1-1,5A7.55,7.55,0,0,1,159,27a8.34,8.34,0,0,1-4.53,1.17A8.53,8.53,0,0,1,150,27a7.27,7.27,0,0,1-2.85-3.26,12,12,0,0,1-1-5.06,11.74,11.74,0,0,1,1-4.94A7.55,7.55,0,0,1,150,10.46,8.23,8.23,0,0,1,154.5,9.26Zm0,3.37a3.09,3.09,0,0,0-2.8,1.47,9,9,0,0,0-.92,4.62,9,9,0,0,0,.91,4.64,3.4,3.4,0,0,0,5.58,0,9.15,9.15,0,0,0,.92-4.68,8.92,8.92,0,0,0-.92-4.59A3.05,3.05,0,0,0,154.5,12.63Z"/><path class="b" d="M180.29,9.77V23.3a11.25,11.25,0,0,1-1.42,5.9,9.86,9.86,0,0,1-4.15,3.72A25.36,25.36,0,0,1,168,35.05l-.73-3.42a20,20,0,0,0,4.61-1.47,7,7,0,0,0,2.92-2.48,7.49,7.49,0,0,0,1-4.09V12.93H169V9.77Zm-3.18-9a2.71,2.71,0,0,1,2,.76,2.55,2.55,0,0,1,.78,1.9,2.56,2.56,0,0,1-.78,1.9,2.72,2.72,0,0,1-2,.77,2.76,2.76,0,0,1-2-.77,2.59,2.59,0,0,1-.77-1.9,2.58,2.58,0,0,1,.77-1.9A2.75,2.75,0,0,1,177.11.74Z"/><path class="b" d="M197.94,9.77V24.52h4.72v3.16H188.23V24.52h5.24V12.93H188.4V9.77Zm-2.89-9a2.71,2.71,0,0,1,2,.76,2.58,2.58,0,0,1,.77,1.9,2.59,2.59,0,0,1-.77,1.9,2.71,2.71,0,0,1-2,.77,2.76,2.76,0,0,1-2-.77,2.59,2.59,0,0,1-.77-1.9A2.58,2.58,0,0,1,193,1.5,2.75,2.75,0,0,1,195.05.74Z"/><path class="b" d="M72.56,40.86V53.27a2.89,2.89,0,0,0,.57,2,2.23,2.23,0,0,0,1.68.6,3.77,3.77,0,0,0,2-.64,5.22,5.22,0,0,0,1.63-1.61V40.86h4.46v17.9H79.05l-.24-2.19a6.27,6.27,0,0,1-2.46,2,7.42,7.42,0,0,1-3.12.69,4.87,4.87,0,0,1-3.86-1.46,5.89,5.89,0,0,1-1.28-4v-13Z"/><path class="b" d="M103.84,57.77a9,9,0,0,1-2.42,1.08,10.77,10.77,0,0,1-3.08.42,6.6,6.6,0,0,1-4.93-1.7,6.17,6.17,0,0,1-1.66-4.52V44H87.86V40.86h3.89V36.92l4.46-.54v4.48h5.92L101.68,44H96.21v9a2.69,2.69,0,0,0,.68,2,3.09,3.09,0,0,0,2.18.64,6.22,6.22,0,0,0,1.77-.23,7.06,7.06,0,0,0,1.46-.58Z"/><path class="b" d="M119,40.86V55.6h4.72v3.16H109.27V55.6h5.24V44h-5.07V40.86Zm-2.89-9a2.73,2.73,0,0,1,2,.76,2.72,2.72,0,0,1,0,3.79,3,3,0,0,1-4,0,2.69,2.69,0,0,1,0-3.79A2.75,2.75,0,0,1,116.08,31.83Z"/><path class="b" d="M137.49,33.7V53.56a1.9,1.9,0,0,0,.68,1.65,3.13,3.13,0,0,0,1.86.49,5.89,5.89,0,0,0,1.4-.16,9.57,9.57,0,0,0,1.28-.39l1.1,3a11.41,11.41,0,0,1-2.05.75,10.7,10.7,0,0,1-2.8.33,5.67,5.67,0,0,1-4.43-1.67,6.53,6.53,0,0,1-1.5-4.52V36.87h-5.37V33.7Z"/><path class="b" d="M156.07,56a5,5,0,0,0,2.53-.55,1.69,1.69,0,0,0,1-1.54,1.94,1.94,0,0,0-.32-1.12,2.8,2.8,0,0,0-1.22-.85,20.57,20.57,0,0,0-2.74-.89,14.93,14.93,0,0,1-3-1.09,5.33,5.33,0,0,1-2-1.68,4.92,4.92,0,0,1,.16-5.37A5.57,5.57,0,0,1,153,41a10.7,10.7,0,0,1,4-.67,12.23,12.23,0,0,1,4,.6,11.24,11.24,0,0,1,3,1.5l-1.82,2.72A11.49,11.49,0,0,0,159.79,44a8.61,8.61,0,0,0-2.72-.43,4.34,4.34,0,0,0-2.29.46,1.43,1.43,0,0,0-.72,1.27,1.4,1.4,0,0,0,.36,1,3.54,3.54,0,0,0,1.32.76q1,.36,2.73.87a16.89,16.89,0,0,1,3,1.12,5,5,0,0,1,2,1.71,4.89,4.89,0,0,1,.71,2.79,4.63,4.63,0,0,1-1.13,3.21,6.84,6.84,0,0,1-3,1.88,12.45,12.45,0,0,1-4,.62,12.21,12.21,0,0,1-4.43-.73,10.69,10.69,0,0,1-3.21-1.87l2.31-2.61a9.38,9.38,0,0,0,2.4,1.37A7.69,7.69,0,0,0,156.07,56Z"/></svg>